<svg width="44" height="52" viewBox="0 0 44 52" fill="none" xmlns="http://www.w3.org/2000/svg">
<path d="M16.8252 3.93242C16.8252 2.35756 17.5315 0.947322 18.6451 0C18.4909 0.0832333 18.339 0.172601 18.1898 0.268106L3.24635 9.83581C1.22335 11.1311 0 13.3649 0 15.7638V36.2362C0 38.6351 1.22335 40.8689 3.24635 42.1642L18.1898 51.7319C18.339 51.8274 18.4909 51.9168 18.6451 52C17.5315 51.0527 16.8252 49.6424 16.8252 48.0676V3.93242Z" fill="white"/>
<path d="M27.1748 3.93242C27.1748 2.35756 26.4685 0.947322 25.3549 0C25.5091 0.0832332 25.661 0.172601 25.8102 0.268107L40.7537 9.83581C42.7767 11.1311 44 13.3649 44 15.7638V20.6005H27.1748V3.93242Z" fill="white"/>
<path d="M27.1748 30.93V48.0676C27.1748 49.6424 26.4685 51.0527 25.3549 52C25.5091 51.9168 25.661 51.8274 25.8102 51.7319L40.7536 42.1642C42.7767 40.8689 44 38.6351 44 36.2362V30.93H27.1748Z" fill="white"/>
</svg>
