<?xml version="1.0" encoding="UTF-8"?>
<svg width="36px" height="32px" viewBox="0 0 36 32" version="1.1" xmlns="http://www.w3.org/2000/svg" xmlns:xlink="http://www.w3.org/1999/xlink">
    <!-- Generator: Sketch 62 (91390) - https://sketch.com -->
    <title>Shape</title>
    <desc>Created with Sketch.</desc>
    <g id="Page-1" stroke="none" stroke-width="1" fill="none" fill-rule="evenodd">
        <g id="noun_Email_1397368" fill="#FFFFFF" fill-rule="nonzero">
            <g id="Group">
                <g id="Shape">
                    <path d="M11.1083023,18.505223 C11.4528591,18.6827385 11.7153263,18.9867371 11.8406902,19.3535 L13.8273138,25.1655382 C14.0045108,25.6839431 14.4212258,25.7508695 14.7649587,25.3061132 L16.4498128,23.1260789 C16.9273789,22.5081557 17.79917,22.3600487 18.4540084,22.7855899 L25.033613,27.0612901 C25.4954781,27.3614293 25.9829365,27.1649472 26.1168828,26.643829 L31.5465273,5.5197922 C31.6829356,4.9890956 31.3811053,4.732867 30.8744644,4.9466061 L6.4570748,15.2476924 C5.9494964,15.461827 5.9386236,15.8418068 6.4329846,16.0965013 L11.1083023,18.505223 Z M1.3130145,16.8334358 C0.1817882,16.2506284 0.244484,14.6125875 1.4169492,14.1179538 L33.4169492,0.6179538 C34.5604769,0.135528 35.7617475,1.1713651 35.4527767,2.3734164 L28.25576,30.3734164 C28.0004224,31.3668076 26.8456796,31.8166454 25.9856409,31.2577565 L18.8200868,26.6012819 C18.3551779,26.2991648 17.7087851,26.4029692 17.3688118,26.8428609 L14.8172413,30.1443404 C14.086508,31.0898369 12.5975122,30.8429635 12.2110147,29.7122317 L9.5198447,21.8389825 C9.3417233,21.317873 8.7955037,20.6884109 8.3082225,20.4373639 L1.3130145,16.8334358 Z"></path>
                </g>
            </g>
        </g>
    </g>
</svg>