<?xml version="1.0" standalone="no"?>
<!DOCTYPE svg PUBLIC "-//W3C//DTD SVG 20010904//EN"
 "http://www.w3.org/TR/2001/REC-SVG-20010904/DTD/svg10.dtd">
<svg version="1.0" xmlns="http://www.w3.org/2000/svg"
 width="700.000000pt" height="700.000000pt" viewBox="0 0 700.000000 700.000000"
 preserveAspectRatio="xMidYMid meet">
<metadata>
Created by potrace 1.14, written by Peter Selinger 2001-2017
</metadata>
<g transform="translate(0.000000,700.000000) scale(0.100000,-0.100000)"
fill="#000000" stroke="none">
<path d="M0 3500 l0 -3500 3500 0 3500 0 0 3500 0 3500 -3500 0 -3500 0 0
-3500z m5065 1141 c261 -69 484 -269 575 -518 25 -69 65 -242 58 -248 -4 -3
-401 -65 -414 -65 -7 0 -20 34 -29 75 -31 141 -117 276 -211 331 -120 70 -280
71 -421 3 -75 -37 -182 -150 -226 -240 -71 -145 -81 -204 -81 -464 0 -217 2
-236 27 -330 68 -255 199 -399 399 -441 192 -40 361 41 446 216 32 64 82 240
82 286 0 13 3 24 8 24 4 0 104 -22 222 -49 l215 -48 -3 -39 c-5 -69 -51 -224
-92 -311 -74 -158 -194 -295 -331 -376 -206 -122 -536 -146 -789 -59 -125 43
-221 103 -324 201 -211 202 -310 498 -310 931 0 212 15 329 61 469 112 346
394 602 731 666 106 20 301 13 407 -14z m-3016 -746 c179 -399 328 -722 332
-718 4 5 151 330 327 723 l319 715 227 3 226 2 0 -1120 0 -1120 -210 0 -210 0
-1 693 c0 471 -3 687 -10 677 -6 -8 -151 -319 -323 -690 l-312 -675 -35 -3
-35 -3 -319 691 -320 692 -3 -691 -2 -691 -210 0 -210 0 0 1120 0 1120 223 0
222 0 324 -725z"/>
</g>
</svg>
