<?xml version="1.0" standalone="no"?>
<!DOCTYPE svg PUBLIC "-//W3C//DTD SVG 20010904//EN"
 "http://www.w3.org/TR/2001/REC-SVG-20010904/DTD/svg10.dtd">
<svg version="1.0" xmlns="http://www.w3.org/2000/svg"
 width="700.000000pt" height="700.000000pt" viewBox="0 0 700.000000 700.000000"
 preserveAspectRatio="xMidYMid meet">
<metadata>
Created by potrace 1.14, written by Peter Selinger 2001-2017
</metadata>
<g transform="translate(0.000000,700.000000) scale(0.100000,-0.100000)"
fill="#000000" stroke="none">
<path d="M3085 6102 c-43 -28 -105 -68 -485 -311 -129 -82 -240 -155 -247
-160 -7 -6 -14 -11 -17 -11 -2 0 -38 -21 -78 -47 -41 -27 -81 -52 -89 -58 -9
-5 -27 -17 -40 -26 -29 -20 -393 -252 -498 -318 -96 -59 -226 -188 -274 -271
-21 -36 -50 -101 -65 -145 l-27 -80 -2 -1150 c-2 -1290 -5 -1222 72 -1380 71
-144 150 -225 339 -345 48 -30 115 -73 149 -95 173 -112 531 -342 555 -356 66
-39 709 -453 724 -466 9 -8 23 -13 30 -10 8 4 9 6 1 6 -26 2 -108 133 -139
221 -18 54 -19 117 -19 2390 0 2500 -3 2364 47 2477 19 44 80 129 107 150 31
24 -5 12 -44 -15z"/>
<path d="M3870 6124 c0 -4 16 -25 36 -47 50 -54 100 -167 112 -252 7 -45 11
-373 11 -910 -1 -462 0 -846 0 -852 1 -10 179 -13 857 -13 l856 0 -4 313 c-4
306 -5 314 -31 392 -38 115 -91 199 -182 290 -68 68 -131 113 -417 295 -376
239 -413 263 -445 282 -23 14 -211 134 -348 223 -44 29 -138 90 -210 135 -71
46 -154 98 -182 117 -29 18 -53 31 -53 27z"/>
<path d="M4029 2970 c0 -14 -2 -428 -3 -920 -3 -953 -1 -907 -49 -1021 -20
-45 -105 -159 -120 -159 -5 0 -8 -2 -5 -5 5 -6 71 35 358 220 80 52 194 124
253 162 130 82 146 92 490 313 561 359 560 358 646 472 22 30 56 88 75 129 57
123 64 177 65 524 l1 311 -855 0 -855 0 -1 -26z"/>
</g>
</svg>
