<svg version="1.1" id="Layer_1" xmlns="http://www.w3.org/2000/svg" x="0" y="0" viewBox="0 0 500 500" xml:space="preserve"><style>.st0{fill:#fff}</style><g id="g3"><g id="g5"><g id="g7"><g id="g9"><path id="path11" class="st0" d="M125.4 281.2c-17.2 0-31.1-13.9-31.1-31.2 0-17.2 13.9-31.1 31.1-31.1 6.1 0 11.7 1.7 16.5 4.7L125.4 250l31.1-17.9c-3.4-5.4-8.2-10-14.1-13.5-7.4-4.5-17.8-7.2-29.3-7.2-16.3 0-30.7 5.9-38.7 14.8C68.5 232.7 65 241 65 250s3.5 17.3 9.4 23.9c8 8.9 22.1 14.8 38.2 14.8s30.2-5.9 38.2-14.8c.4-.5.9-1 1.3-1.5l-1.2-4.5c-5.6 8-14.9 13.3-25.5 13.3"/><path id="path13" class="st0" d="M228.4 286.8l-13-48.7c-2.1-7.9-9.3-13.6-17.8-13.6-2.2 0-4.3.4-6.3 1.1l-28.1 10.2h28.9l4.9 18.4c-4.8-4.1-11-6.6-17.8-6.6-13.6 0-24.5 9.1-24.5 20.3 0 11.2 11 20.3 24.5 20.3 9.8 0 18.4-4.8 23.7-12.1l2.9 10.7h22.6m-39.7-7.5c-6.3 0-11.3-5.1-11.3-11.3 0-6.3 5.1-11.3 11.3-11.3 6.3 0 11.3 5.1 11.3 11.3 0 6.2-5.1 11.3-11.3 11.3z"/><path id="path15" class="st0" d="M281.6 224.5c-1.7 0-3.3.4-4.8 1.1l-18 8.4c-.9-5.4-5.6-9.5-11.2-9.5-1.7 0-3.3.4-4.8 1.1l-22 10.3h15.5v51H259v-45.3c0-3.1 2.5-5.7 5.7-5.7 3.1 0 5.7 2.5 5.7 5.7v45.3H293v-51c-.1-6.3-5.1-11.4-11.4-11.4"/><path id="path17" class="st0" d="M423.7 224.5c-1.7 0-3.3.4-4.8 1.1l-18 8.4c-.9-5.4-5.6-9.5-11.2-9.5-1.7 0-3.3.4-4.8 1.1l-22 10.3h15.5v51H401v-45.3c0-3.1 2.5-5.7 5.7-5.7 3.1 0 5.7 2.5 5.7 5.7v45.3H435v-51c0-6.3-5.1-11.4-11.3-11.4"/><path id="path19" class="st0" d="M366.6 256.6c0 17.7-14.4 32.1-32.1 32.1-17.7 0-32.1-14.4-32.1-32.1 0-17.7 14.4-32.1 32.1-32.1 17.7 0 32.1 14.4 32.1 32.1m-30.8-22.3c-1-3.8-4.9-6-8.7-5-3.8 1-6 4.9-5 8.7l11 41c1 3.8 4.9 6 8.7 5 3.8-1 6-4.9 5-8.7l-11-41z"/></g></g></g></g></svg>