<svg xmlns="http://www.w3.org/2000/svg" version="1.0" width="1024" height="302" viewBox="-1.074 -1.074 128.679 37.937"><path d="M54.098 14.677H47.81V8.69h5.953c1.014 0 3.371.578 3.371 2.986 0 1.962-1.024 3.001-3.037 3.001m-.755 7.36c.273.551 6.556 13.09 6.556 13.09h39.826V27.23H79.954v-5.188h14.249v-7.354h-14.25V8.73h16.47c3.53 6.085 7.827 13.483 7.908 13.625v12.772h9.705V22.355c.14-.238 12.495-21.523 12.495-21.523h-11.058l-6.29 12.84c-.805-1.646-6.292-12.84-6.292-12.84H69.655V30.53c-2.596-4.47-6.2-10.67-6.545-11.267 3.079-1.462 4.968-4.687 4.968-8.565 0-3.248-1.33-5.88-3.847-7.617-2.11-1.455-5.06-2.249-8.312-2.249h-17.68v34.295h9.566V22.033l5.538.004zM0 17.898C0 28.26 8.023 35.79 19.071 35.79c1.533 0 6.453-.284 9.84-3.534-.006 1.078 0 2.874 0 2.874h7.502V14.666H20.11v7.373h6.631c-.79 2.695-3.792 5.251-7.886 5.251-5.991 0-8.124-4.854-8.124-9.392 0-4.54 2.133-9.393 8.124-9.393 3.003 0 5.456 1.069 6.403 2.786l.152.3h10.883l-.145-.65C34.307 2.87 25.795 0 19.07 0 8.022 0 0 7.529 0 17.898" fill="#fff"/></svg>