<svg width="112" height="14" xmlns="http://www.w3.org/2000/svg"><g fill="#000" fill-rule="nonzero"><path d="M14.89 13.23h4.05L21.113.8h-4.058l-.8 4.445h-3.514l.8-4.445h-4.05l-2.17 12.43h4.05l.817-4.65H15.7l-.81 4.65zM23.39.785L22.167 7.7a7.94 7.94 0 00-.153 1.556c0 3.665 3.21 4.22 5.13 4.22 4.035 0 5.777-1.34 6.406-4.96L34.908.761h-4.05L29.71 7.27c-.37 2.033-.632 3.097-2.14 3.097-.988 0-1.462-.524-1.462-1.603a8.402 8.402 0 01.185-1.556L27.466.762h-4.063l-.013.023zM56.315 13.23h4.05l.57-3.21h1.91c3.527 0 5.483-1.91 5.483-5.39 0-2.45-1.694-3.85-4.668-3.85h-5.186l-2.159 12.45zm6.315-6.268h-1.17l.538-2.927h1.094c.894 0 1.37.447 1.37 1.262 0 1.032-.694 1.665-1.832 1.665zM76.2.516c-4.406 0-7.04 2.85-7.04 7.64 0 3.327 2.094 5.33 5.606 5.33 4.403 0 7.03-2.843 7.03-7.64.022-3.354-2.07-5.33-5.596-5.33zm-1.185 9.75c-1.047 0-1.665-.756-1.665-2.018 0-.46.046-.92.138-1.371.31-1.632.832-3.127 2.47-3.127 1.047 0 1.665.756 1.665 2.018 0 .46-.046.92-.138 1.371-.3 1.618-.822 3.127-2.47 3.127zm20.88 2.964h4.05l1.605-9.103h3.05L105.185.8H94.814l-.585 3.327h3.235l-1.569 9.103zm-6.713-7.84c-1.28-.4-1.803-.57-1.803-1.17 0-.4.262-.877 1.032-.877a1.295 1.295 0 011.235.8l3.574-.97C92.803 1.417 91.29.516 88.688.516c-4.895 0-5.283 3.287-5.283 4.3 0 2.033 1.08 3.28 3.42 3.927.615.17 1.324.353 1.324 1.032 0 .538-.4.877-1.094.877a1.635 1.635 0 01-1.534-1.017l-3.527.956c.385 1.847 2.126 2.894 4.85 2.894 2.08 0 5.56-.556 5.56-4.312.01-1.877-1.052-3.11-3.223-3.77l.001-.013zM5.057 13.23L7.235.8h-6.7v12.43h4.522zM106.925.8l-2.16 12.43h6.7V.8h-4.54zM37.217.785l-2.17 12.445h4.05l.647-3.665h3.403l.556-3.127h-3.406l.385-2.312h4.76l.585-3.34-8.81-.001zm10.627 0l-2.17 12.445h4.05l.632-3.665h3.418l.556-3.127h-3.403l.385-2.312h4.757l.585-3.34-8.81-.001z"/></g></svg>