<svg width="194" height="194" xmlns="http://www.w3.org/2000/svg"><g fill="#fff" fill-rule="evenodd"><path d="M21.296 126.464H8.764V66.476h12.532v24.396l22.892-24.396h16.209l-24.48 24.563 25.9 35.425H45.692l-18.548-26.318-5.848 6.016v20.302M102.418 126.464H90.721V99.478c0-3.259-.167-8.773-7.603-8.773-5.18 0-9.19 3.51-9.19 10.277v25.482H62.231V82.016h11.196v6.517h.167c1.587-2.674 4.929-7.686 13.367-7.686 8.689 0 15.457 5.096 15.457 14.871v30.746M128.39 80.847c11.948 0 22.726 7.352 22.726 23.393s-10.778 23.394-22.726 23.394c-11.947 0-22.725-7.353-22.725-23.394 0-16.041 10.778-23.393 22.725-23.393zm0 9.858c-8.909 0-10.65 7.656-10.693 13.318l-.001.217c0 5.682 1.671 13.535 10.694 13.535 9.024 0 10.695-7.853 10.695-13.535 0-5.681-1.671-13.535-10.695-13.535zM154.614 126.464h11.697V66.476h-11.697zM172.815 126.464h11.697V66.476h-11.697z"/></g></svg>