<svg width="782" height="167" xmlns="http://www.w3.org/2000/svg"><g fill="#fff" fill-rule="nonzero"><path d="M55.04 45.84h24.78v52.95h34.84v21.18H55.04V45.84zm65.24 0h24.77v74.13h-24.77V45.84zm28.06 0h27.74l14.4 41.62 14.4-41.62h27.33l-30.08 74.66h-23.72l-30.07-74.66zm84.82 0h63.18v20.33h-38.82v7.52h36.21v17.9h-36.21v8.05h39.39v20.33h-63.75V45.84zM326.24 45.84h23.19l26.37 32.72V45.84h24.54v74.13h-22l-27.53-34.21v34.21h-24.57z"/><path d="M430.44 45.31h24.57l31.24 74.66h-26.91l-3.91-9.93h-25.94l-3.81 9.95H399.2l31.24-74.68zm18.9 47.13l-6.77-18-6.78 18h13.55zm40.93-25.63h-21.81v-21h68.41v21h-21.82v53.16h-24.78V66.81zm50.3-20.97h24.77v74.13h-24.77V45.84zm29.65 37.28v-.21c0-21.5 17.69-38.66 40.56-38.66s40.35 17 40.35 38.44v.22c0 21.49-17.69 38.65-40.56 38.65s-40.35-16.95-40.35-38.44zm55.92 0v-.21c0-8.79-6-16.74-15.57-16.74s-15.35 7.84-15.35 16.52v.22c0 8.79 6 16.73 15.56 16.73s15.36-7.84 15.36-16.52zm27.53-37.28h23.19l26.37 32.72V45.84h24.57v74.13h-22l-27.56-34.21v34.21h-24.57V45.84z"/><path d="M781.5 166.41H0V.04h781.5v166.37zM16.43 149.98h748.63V16.44H16.43v133.54z"/></g></svg>