<svg version="1.1" id="Layer_1" xmlns="http://www.w3.org/2000/svg" x="0" y="0" viewBox="0 0 500 500" xml:space="preserve"><style>.st0{fill:#fff}</style><g id="XMLID_1_"><path id="XMLID_2_" class="st0" d="M90 243.8v18.7c0 1.5.1 2.6.4 3.1.1.3.5.5 1.2.6.6.3 1.9.5 3.9.6 1.9.1 4.6.3 8 .3v.8h-36v-.8c2.8 0 5.2-.1 7-.3 1.8-.1 3.1-.4 3.7-.6s1-.5 1.2-.6c.3-.4.4-1.4.4-3.1v-42.8c0-1.5-.1-2.5-.4-3-.1-.3-.4-.4-1-.6-1.5-.6-5.3-.9-10.8-.9v-.8h32.3c6.6 0 11.8 1.5 15.6 4.5 3.6 2.8 5.4 6.6 5.4 11.2 0 3.1-1.4 6.1-4.1 8.7-3.5 3.2-8.1 4.8-13.9 4.8H90v.2zm0-.8h8.4c4.6 0 7.9-1.2 9.7-3.6 1.6-2.1 2.3-5.3 2.3-9.8 0-4.8-1-8.3-3.1-10.7-2.1-2.5-5.2-3.6-9.6-3.6h-4c-1.2 0-2.1.1-2.6.3-.5.1-.9.5-1 1 0 .5-.1 1.5-.1 3.2V243z"/><path id="XMLID_5_" class="st0" d="M130.3 250.9c0 5.9.6 10.3 2.1 12.9 1.4 2.7 3.6 4 6.5 4 3.1 0 5.7-1 8-3.1 2.8-2.5 4.3-5.9 4.3-10.2h.6c0 4.1-1.3 7.6-4 10.2-2.7 2.7-6.2 4-10.6 4-3.7 0-7.1-1.4-10.1-4.3-3.6-3.4-5.4-7.6-5.4-13 0-5.8 1.8-10.6 5.3-14.2 3.1-3.1 6.6-4.8 10.5-4.8 3.6 0 6.6 1 8.9 3.1 3.5 3.1 5.3 8.1 5.3 15.2h-21.3v.2zm14.2-.9c0-5.4-.5-9.4-1.4-12.3-.9-2.8-2.5-4.3-4.6-4.3-3 0-5.2 1.3-6.3 4-1.3 2.7-1.8 6.8-1.8 12.5h14.1z"/><path id="XMLID_8_" class="st0" d="M169.4 247.7v16.4c0 1.2.1 1.8.3 2.2.1.1.4.4.8.5.4.1 1.2.3 2.2.4 1 .1 2.1.1 2.8.1v.8h-21.2v-.8c1.2 0 2.5 0 3.6-.1 1.2-.1 2.2-.4 3.2-.6.4-.3.5-1 .5-2.5v-25.3-1.5c0-.5-.1-.9-.4-1.2l-.5-.8c-.5-.4-2.7-.6-6.3-.6v-.8l15-1.3v10.6c.4-2.3 1-4.5 2.2-6.3 1.5-2.6 3.2-3.9 4.9-4.1 1.7-.1 2.8-.3 3.4-.3 3.5 0 6.2 1 8.3 3.2 1.7 1.8 2.6 3.9 2.6 6.3v22.1c0 1.2.1 1.8.3 2.2.1.1.4.4.8.5.4.1 1.3.3 2.5.4 1.2.1 2.3.1 3.4.1v.8h-21.3v-.8c.9 0 1.9 0 3.1-.1 1.2-.1 2.2-.4 3.1-.6.4-.3.5-1 .5-2.5v-21.2c0-2.7-.3-4.6-.6-6.1-.8-2.3-2.1-3.5-4-3.5-2.6 0-4.6 1.5-6.2 4.8-1.6 2.5-2.5 5.7-3 9.6z"/><path id="XMLID_9_" class="st0" d="M222.7 250.4v3.9c0 1.3 0 2.5.1 3.6 0 3.9-.4 6.6-1.3 8-1.2 1.9-3.6 3-7.1 3-3.4 0-5.8-.8-7.4-2.5-1.5-1.6-2.3-3.9-2.3-6.8V236h-6.6v-.8c4.5-1.2 8-3.7 10.3-7.9 1.8-3.4 2.8-7.1 2.8-11.2h1.4v17.6h9.6v2.5h-9.6v22.6c0 3 .1 4.9.4 5.8.5 2.1 1.8 3.1 3.6 3.1 2.2 0 3.7-1.2 4.4-3.6.5-1.7.8-4.8.8-9.4v-4h.8v-.3z"/><path id="XMLID_10_" class="st0" d="M246.3 243.9V239c0-2.2-.4-3.7-1-4.5-.6-.8-2.2-1.2-4.5-1.2-1.9 0-3.6.4-5 1.2-1.4.8-2.3 1.7-2.8 3 .3 0 .5-.1.8-.1 1 0 1.9.4 2.6 1.3.6.8 1 1.8 1 2.8 0 1.2-.4 2.2-1.3 3-.8.8-1.8 1.2-3 1.2-.8 0-1.4-.3-1.9-.5-1.7-1-2.5-2.3-2.5-4 0-.8.1-1.7.5-2.7.8-2.2 2.7-3.7 5.8-4.8 2.2-.8 4.5-1 6.7-1 4.1 0 7.2.8 9.3 2.3 1.9 1.4 2.8 3.1 2.8 5.2v18.3c0 3.4.1 5.4.3 6.2.4 1.9 1.4 2.8 3 2.8 1.4 0 2.5-.8 3-2.2.5-1.5.8-3.6.8-6.5v-2.3-3.3h1v3.6c0 1.2 0 2.3.1 3.4 0 3.2-.4 5.4-1.2 6.5-1 1.4-3.1 2.1-6.1 2.1-2.5 0-4.1-.4-5.3-1.3-1.4-1-2.3-2.7-2.7-5-1.2 2.7-3 4.5-5.3 5.4-1.4.5-3.2.8-5.6.8-2.3 0-4.4-.5-6.1-1.7-2.3-1.5-3.6-3.7-3.6-6.8 0-3 1.2-5.6 3.5-7.6 2.3-1.9 5.2-3.1 8.4-3.4 3.4-.3 5.6-.8 6.7-1.3 1-.5 1.6-1.9 1.6-4zm-.2 15.1v-11.1c-.6.9-1.7 1.4-3 1.7-1.3.3-2.6.4-3.7.5-1.5.4-2.8 1.3-3.9 2.7-1.2 1.7-1.7 4-1.7 7 0 3.2.3 5.4.9 6.6.6 1.2 1.7 1.7 3 1.7 2.1 0 4-.9 5.7-2.6 1.8-1.9 2.7-4 2.7-6.5z"/><path id="XMLID_13_" class="st0" d="M271.2 254c-1.8-.9-3.1-2.1-4.1-3.5-1-1.4-1.5-3.2-1.5-5.3 0-3.5 1.5-6.6 4.8-9 3-2.3 6.2-3.4 9.7-3.4 1 0 2.2.1 3.4.4s2.2.6 3.2 1v-1.9c0-2.6.5-4.3 1.4-5.2.9-.8 2.3-1.2 4.1-1.2.8 0 1.5.3 2.2.9.6.5.9 1.3.9 2.2 0 1.9-.9 3-2.7 3-1.9 0-2.8-.9-2.8-2.7 0-.4 0-.6.1-.9.1-.3.3-.5.4-.9-1.2.1-1.8.6-2.2 1.4-.4.8-.5 1.9-.5 3.2 0 1.2.1 2.1.1 2.6 2.2 1 3.9 2.5 5.2 4.1 1.3 1.7 1.8 3.7 1.8 5.9 0 3.4-1.5 6.2-4.8 8.3-2.8 1.9-6.1 3-9.7 3-2.6 0-4.9-.4-7.2-1.3-1.9 0-3.5.3-4.6.9-1.5.8-2.3 2.2-2.3 4.1 0 .8.6 1.4 2.1 1.9 1.3.5 3.9.8 7.7.8h4.8c4.9 0 8.7.6 11.2 1.9 3.2 1.7 4.8 4.4 4.8 8.3 0 4.1-1.4 7.2-4.4 9.4-3 2.2-6.7 3.4-11.4 3.4-5.6 0-10.1-.9-13.4-2.8-3.4-1.8-5-4-5-6.3 0-1.5.9-2.8 2.7-3.9 1.3-.8 3.2-1.4 5.9-2.2-2.5-.9-4.3-1.8-5.4-2.8-1.5-1.4-2.5-3.2-2.5-5.4 0-2.3.6-4.3 2.1-5.7 1.4-1.7 3.3-2.3 5.9-2.3zm9.9 30.7c3.7 0 6.6-.8 8.7-2.3 2.1-1.5 3.1-3.5 3.1-5.7 0-2.7-.9-4.5-2.6-5.4-1.7-.9-4.8-1.4-9.3-1.4-5.2 0-8.8.6-10.7 1.8-1.5 1-2.5 2.7-2.5 5.2 0 2.3.6 4.1 1.9 5.3 2.3 1.6 6 2.5 11.4 2.5zm6-40.3c0-3.5-.5-6.2-1.4-7.9-1-2.1-3-3.1-5.7-3.1-2.5 0-4.3 1-5.4 3-1.2 1.9-1.7 4.6-1.7 8 0 3.9.5 6.7 1.4 8.4.9 1.7 2.8 2.5 5.7 2.5 2.6 0 4.3-.9 5.4-2.6 1.2-1.8 1.7-4.5 1.7-8.3z"/><path id="XMLID_17_" class="st0" d="M307.6 238.1c0-1.2-.1-1.8-.4-2.1-.4-.5-.8-.9-1-1-1-.3-3.2-.4-6.8-.4v-.8l16-1.3v10.6c.3-2.3 1-4.4 2.3-6.5 1.8-2.7 4.1-4.1 6.8-4.1 1 0 2.2.4 3.4 1 1.2.6 2.1 1.5 2.5 2.6.4 1 .6 1.9.6 2.8 0 2.2-.9 3.7-2.7 4.5-.4.3-1 .4-1.8.4-1.2 0-2.1-.4-2.8-1.2-.8-.8-1.2-1.9-1.2-3.5 0-1 .4-1.9 1.2-3 .8-1 1.7-1.4 2.6-1.2-.4-1.2-1.3-1.8-3-1.8-1.5 0-3.2 1.2-4.8 3.5-2.1 3-3.1 6.8-3.1 11.6v15.5c0 1.2.1 1.8.3 2.2.1.1.4.4.8.5 1.2.4 3.6.6 7.2.6v.8h-24.3v-.8c1.5 0 3.1 0 4.4-.1 1.3-.1 2.5-.4 3.4-.6.4-.3.5-1 .5-2.5v-25.7z"/><path id="XMLID_18_" class="st0" d="M353.6 243.9V239c0-2.2-.4-3.7-1-4.5-.6-.8-2.2-1.2-4.5-1.2-1.9 0-3.6.4-5 1.2-1.4.8-2.3 1.7-2.8 3 .3 0 .5-.1.8-.1 1 0 1.9.4 2.6 1.3.6.8 1 1.8 1 2.8 0 1.2-.4 2.2-1.3 3-.8.8-1.8 1.2-3 1.2-.8 0-1.4-.3-1.9-.5-1.7-1-2.5-2.3-2.5-4 0-.8.1-1.7.5-2.7.8-2.2 2.7-3.7 5.8-4.8 2.2-.8 4.5-1 6.7-1 4.1 0 7.2.8 9.3 2.3 1.9 1.4 2.8 3.1 2.8 5.2v18.3c0 3.4.1 5.4.3 6.2.4 1.9 1.4 2.8 3 2.8 1.4 0 2.5-.8 3-2.2.5-1.5.8-3.6.8-6.5v-2.3-3.3h1v3.6c0 1.2 0 2.3.1 3.4 0 3.2-.4 5.4-1.2 6.5-1 1.4-3.1 2.1-6.1 2.1-2.5 0-4.1-.4-5.3-1.3-1.4-1-2.3-2.7-2.7-5-1.2 2.7-3 4.5-5.3 5.4-1.4.5-3.2.8-5.6.8-2.3 0-4.4-.5-6.1-1.7-2.3-1.5-3.6-3.7-3.6-6.8 0-3 1.2-5.6 3.5-7.6 2.3-1.9 5.2-3.1 8.4-3.4 3.4-.3 5.6-.8 6.7-1.3 1.1-.5 1.6-1.9 1.6-4zm-.3 15.1v-11.1c-.6.9-1.7 1.4-3 1.7s-2.6.4-3.7.5c-1.5.4-2.8 1.3-3.9 2.7-1.2 1.7-1.7 4-1.7 7 0 3.2.3 5.4.9 6.6.6 1.2 1.7 1.7 3 1.7 2.1 0 4-.9 5.7-2.6 2-1.9 2.7-4 2.7-6.5z"/><path id="XMLID_21_" class="st0" d="M405.9 242.6c.4-2.6 1-4.5 1.9-6.1 1.4-2.3 3.2-3.7 5.7-4 .4 0 .8 0 1.3-.1.5 0 .8-.1 1-.1 3.4 0 6.2 1 8.1 3.2 1.7 1.8 2.6 3.9 2.6 6.3v22.1c0 1 .1 1.8.3 2.1.1.3.4.4.8.6.4.1 1.2.3 2.2.4 1 .1 1.9.1 2.7.1v.8h-19.6v-.8c1.3 0 2.3 0 3.1-.1.8-.1 1.5-.4 2.3-.8.4-.3.5-1 .5-2.3v-21.1c0-2.6-.3-4.6-.6-6.1-.8-2.3-2.1-3.5-3.9-3.5-1.9 0-3.6.9-4.9 2.7-1.4 2.1-2.6 5.8-3.4 11.2v16.7c0 1.2.1 1.8.3 2.2.1.1.4.3.8.5.4.1 1 .3 2.1.4 1 .1 1.9.3 2.8.3v.8h-19.8v-.8c2.1 0 3.7-.1 4.9-.6l.6-.3c.4-.3.5-1 .5-2.5v-21.1c0-2.7-.3-4.6-.6-6.1-.8-2.3-2.1-3.5-4-3.5-2.5 0-4.4 1.5-5.8 4.8-.9 2.2-1.7 5.4-2.2 9.6v16.4c0 1.2.1 1.8.3 2.2.1.1.4.4.8.5.4.1 1.2.3 2.2.4 1 .1 1.9.1 2.7.1v.8h-21.2v-.8c1.2 0 2.3 0 3.5-.1 1.2-.1 2.2-.4 3.2-.6.4-.3.5-1 .5-2.5v-25.2-1.5c0-.5-.1-.9-.4-1.2-.4-.5-.8-.9-1-1-.8-.3-2.7-.4-5.7-.4v-.6l15-1.4v10.6c.4-2.7 1-4.8 1.8-6.3 1.3-2.6 3.2-4 5.7-4.3.5 0 1-.1 1.4-.1h.9c3.6 0 6.2 1 8.1 3 1.6 1.8 2.5 4.2 2.5 7.1z"/></g></svg>