<svg width="159" height="50" xmlns="http://www.w3.org/2000/svg"><g fill="#fff" fill-rule="evenodd"><path d="M104.27 12.478c1.317 1.5 4.2 1.436 5.915 2.537-2.315.594-5.23.592-7.326 1.406.493-1.29.936-2.63 1.41-3.942M87.927 17.69c-.693 3.16-2.143 6.777-2.957 10.283 4.478.063 9.2-.85 13.804-1.127.624-.833.93-1.982 1.27-3.098.922 1.306 1.572 3.75.704 5.633-6.992-.096-12.018 5.63-18.877 5.636-3.07.004-5.682-1.764-4.226-5.212 2.054-4.866 7.147-8.265 10.283-12.115"/><path d="M109.342 6.842c-1.788.217-3.058 2.17-4.226 2.817.085-.008.165-.023.138-.142.215-.962.623-1.727.705-2.816-9.376-3.302-18.5 1.525-25.215 5.21-5.37 2.947-10.163 6.408-13.525 9.86 1.215-2.07 2.505-4.12 3.945-6.055 1.458-1.965 3.084-3.743 4.37-5.494-2.81-.735-5.626-1.51-8.458-2.114-4.025-.857-9.625-2.277-12.96-.423-.965.536-1.754 1.854-2.676 1.972-.762.1-2.018-.46-2.958-.563-3.443-.383-6.61-.063-9.72.562-2.914.583-9.075 1.62-9.864 4.365-.505 1.763.622 3.473.424 5.216-.193 1.716-1.84 3.985-2.677 5.354-1.024 1.676-2.065 3.162-3.804 3.942-1.054-5.248.094-9.916.988-14.367.552-2.744 1.664-5.552.706-8.315-2.686-.372-4.95 1.754-7.61 2.817-4.996 2-10.56 3.822-11.27 9.58-.397 3.243.823 5.306 1.692 7.61 1.864 4.947 4.17 9.135 6.904 12.96-.745 1.37-2.502 1.726-2.68 3.66.796 1.125 2.452 1.273 4.088 1.27 4.727-.012 8.603-2.39 12.114-4.37 7.645-4.3 12.782-10.922 18.175-17.185.947-1.102 1.726-2.428 2.96-3.1 1.212 5.566-1.145 8.54-2.82 13.1-.646 1.758-2.684 7.256-1.69 9.86 1.087 2.866 10.36 2.99 12.82 1.132 1.238-.937 1.73-3.053 2.397-4.368.85-1.692 1.583-3.154 2.252-4.65.038 6.173 4.622 7.984 9.58 9.298 10.535 2.785 21.16-2.19 26.906-5.633-.718 4.572 1.057 5.03 4.65 5.776 9.29 1.917 18.646-.296 26.203-2.116 6.928-1.668 12.5-2.846 13.525-9.72-1.11-.96-3.88-.84-5.775-.563-5.587.817-10.997 3.643-18.455 3.1-1.36-.1-4.3-.576-4.512-1.41-.327-1.3 2-2.21 3.95-2.534 5.59-.947 13.67.008 18.17-1.694 2.162-.816 4.768-3.17 4.506-5.775-.17-1.76-2.47-2.68-4.648-2.814-6.164-.385-10.57 3.212-17.04 1.97.808-1.022.953-2.704 1.97-3.52 4.73-.1 9.327.84 13.805.562 6.227-.39 9.737-3.01 12.68-6.48.316-.373 1.106-.776.846-1.407-10.814-1.644-25.553-6-38.884-4.368m49.023.564c.172.68-.587 1.333-.982 1.832-3.316 4.166-6.992 9.093-11.41 12.256.318 1.658.15 3.856-.427 5.07 1.157 1.478 2.384 2.878 3.1 4.79-.94 4.998-3.127 8.878-6.62 11.412-3.41 2.47-8.018 3.445-13.245 4.65-10.105 2.33-26.735 4.626-34.232-1.41-8.118 4.76-24.526 5.39-32.12-.283-5.398 6.83-26.69 6.232-23.523-7.325-3.948 2.99-9.787 7.112-15.358 9.44-6.46 2.695-18.694 2.392-17.47-6.763.146-1.09.607-1.706 1.127-2.677-1.89-3.298-3.084-5.586-4.226-8.453-1.095-2.75-2.766-5.878-2.96-9.72C-.39 12.06 5.977 6.88 12.28 4.448c3.217-1.244 5.83-3.04 9.016-3.944 4.76-1.356 8.842 1.263 9.155 5.635 5.534-1.643 12.274-3.455 19.583-2.395 5.82-4.525 17.184-1.73 24.654.42 1.69.488 3.962 1.746 5.212 1.692 1.06-.043 2.972-1.48 4.082-1.97 5.24-2.326 12.093-4.8 19.584-3.524 1.418.24 2.716.99 4.225 1.126 1.026.09 2.28-.23 3.383-.28 17.504-.856 32.08 3.842 47.192 6.196"/></g></svg>