<svg width="100" height="22" xmlns="http://www.w3.org/2000/svg"><g fill-rule="nonzero" fill="none"><path d="M20.024.938h19.973c.05.05.067.135.067.202v19.484c0 .135.034.287-.067.422H20.024c-.05-.05-.067-.135-.067-.202V1.36c0-.135-.034-.287.067-.422zm59.97 20.124H60.02c-.05-.05-.067-.135-.067-.202V1.376c0-.135-.034-.287.067-.422h19.973c.05.05.067.135.067.202V20.64c-.017.152.017.287-.067.422h.001z" fill="#FFF"/><path d="M60.003.938v20.125H39.997V.938h20.007-.001zm-39.98 0v20.125H.186c-.152 0-.186-.034-.186-.186V1.123C0 .971.034.937.186.937h19.838l-.001.001zm59.97 20.124V.938h19.82c.17 0 .186.034.186.202v19.72c0 .152-.017.202-.186.202h-19.82zM30.027 4.058H34.6c.17 0 .202.034.202.202v1.923c0 .135-.034.186-.17.186h-3.07c-.17 0-.202.034-.202.202v8.907c0 .135.034.186.17.186h3.087c.152 0 .17.034.17.186v1.94c0 .152-.034.186-.186.186h-9.194c-.135 0-.186-.017-.186-.17v-1.974c0-.135.05-.17.17-.17h3.07c.152 0 .186-.034.186-.186V6.552c0-.135-.034-.17-.17-.17h-3.07c-.152 0-.186-.034-.186-.186V4.3c0-.17.034-.22.202-.22l4.605-.017-.001-.005zM69.62 17.942h-5.735c-.17 0-.202-.05-.202-.202V15.8c0-.152.034-.186.186-.186h1.535c.118 0 .17-.034.17-.152V6.488c0-.118-.034-.17-.152-.17H63.87c-.135 0-.17-.034-.17-.17V4.174c0-.135.034-.17.17-.17H75.3c.152 0 .17.05.17.186v4.065c0 .17-.034.22-.22.22-.7-.017-1.4-.017-2.1 0-.135 0-.186-.034-.186-.186V6.5c0-.135-.017-.202-.186-.202H68.37c-.135 0-.17.034-.17.17v2.986c0 .17.067.186.202.186h3.4c.17 0 .202.05.202.202a32.8 32.8 0 000 1.822c0 .186-.05.202-.22.202H68.4c-.152 0-.202.034-.202.186v3.374c0 .135.034.186.17.186h4.538c.152 0 .17-.05.17-.186v-2.075c0-.152.034-.186.186-.186h2.16c.118 0 .17.017.17.152v4.437c0 .17-.084.152-.186.152l-5.786.034v.002z" fill="#08080A"/><path d="M53.644 11.515c.034.05.1.05.135.067l.5.118c.843.202 1.282.776 1.417 1.603.1.574.084 1.18.118 1.754l.152 2.58c.034.287.034.287-.253.287H53.4c-.135 0-.17-.034-.202-.186-.152-1.164-.202-2.345-.236-3.526 0-.27-.034-.523-.067-.776-.1-.574-.405-.86-.995-.894l-.8-.034h-3.6c-.17 0-.236.034-.236.236l.017 4.96c0 .17-.034.22-.202.22a59.48 59.48 0 00-2.463 0c-.152 0-.17-.034-.17-.186v-13.5c0-.135.034-.186.17-.186h8.52c.294.003.588.03.877.084.928.186 1.484.793 1.704 1.67.32 1.282.32 2.564.067 3.863-.22 1.03-.9 1.57-1.906 1.754-.1.05-.186.034-.22.1l-.014-.008zM6.174 15.1l.32-1.518L8.4 4.7c.1-.44.287-.624.725-.658a18.93 18.93 0 011.957 0c.388.017.6.253.675.607l.37 1.704 1.77 8.215c.034.17.05.337.152.54l.152-.877.978-5.72.7-4.2c.034-.186.067-.27.287-.253h2.2c.152 0 .186.034.152.186l-1.45 7.05-1.23 6.022c-.1.5-.304.658-.776.658h-2.16c-.472 0-.675-.17-.776-.64L10.1 7.82c-.017-.05-.034-.1-.084-.135l-.22 1.012-1.84 8.603c-.1.506-.32.7-.843.7h-2.1c-.523 0-.7-.17-.8-.675l-1.754-8.52-.962-4.622c0-.034 0-.05-.017-.1h2.7c.118 0 .118.084.135.152l.337 1.957 1.475 8.687c0 .034 0 .1.067.202l-.02.019zm78.24-4.108V4.295c0-.186.05-.236.236-.236h6.95c.624 0 1.265.05 1.872.22 1.434.354 2.294 1.3 2.648 2.716.27 1.063.354 2.142.37 3.222a24.082 24.082 0 01-.084 3.12c-.067.7-.186 1.4-.405 2.092-.44 1.248-1.316 2.007-2.58 2.3a9.65 9.65 0 01-1.84.202l-6.916.017c-.202 0-.236-.067-.236-.236l-.017-6.73.002.01z" fill="#FFF"/><path d="M49.933 6.403l2.328.034c.405.034.6.186.7.574.08.268.12.547.118.827.017.574.034 1.164-.118 1.738-.135.5-.32.64-.827.692-.6.05-1.18.017-1.77.017H47.44c-.17 0-.202-.05-.202-.202V6.6c0-.17.034-.202.202-.202l2.497.017-.004-.012zm37.33 4.572v-4.37c0-.152.034-.202.202-.202h3.728c.304 0 .607.017.9.05.827.135 1.23.54 1.4 1.35.17.742.186 1.484.202 2.244l-.084 3.273-.118.827c-.202.894-.742 1.333-1.67 1.383l-2.75.034c-.54 0-1.08-.017-1.62 0-.186 0-.22-.05-.22-.22l.017-4.37.013.001z" fill="#08080A"/></g></svg>